<?xml version="1.0" encoding="iso-8859-1"?>
<!-- Uploaded to: SVG Repo, www.svgrepo.com, Generator: SVG Repo Mixer Tools -->
<!DOCTYPE svg PUBLIC "-//W3C//DTD SVG 1.1//EN" "http://www.w3.org/Graphics/SVG/1.1/DTD/svg11.dtd">
<svg fill="#000000" height="800px" width="800px" version="1.1" id="Capa_1" xmlns="http://www.w3.org/2000/svg" xmlns:xlink="http://www.w3.org/1999/xlink" 
	 viewBox="0 0 329.941 329.941" xml:space="preserve">
<g>
	<path d="M54.631,297.714c6.392-5.988,16.408-5.986,22.8-0.001c9.458,8.86,24.277,8.862,33.737,0c6.392-5.986,16.406-5.987,22.8,0
		c9.46,8.862,24.279,8.86,33.737,0c6.392-5.986,16.406-5.987,22.8,0c9.457,8.859,24.277,8.859,33.736,0.001
		c6.391-5.988,16.407-5.986,22.8-0.001c4.73,4.431,10.799,6.646,16.869,6.646c6.069,0,12.139-2.215,16.868-6.646
		c1.612-1.51,1.695-4.041,0.185-5.653c-1.51-1.611-4.041-1.694-5.654-0.185c-6.392,5.988-16.407,5.986-22.8,0
		c-9.458-8.86-24.277-8.86-33.737,0c-6.393,5.986-16.406,5.986-22.799,0c-9.458-8.86-24.277-8.862-33.737,0
		c-6.393,5.985-16.407,5.986-22.8,0c-9.46-8.862-24.279-8.86-33.737,0c-6.393,5.985-16.407,5.986-22.8,0
		c-9.458-8.86-24.277-8.859-33.737-0.001c-1.612,1.511-1.695,4.042-0.186,5.654C50.488,299.141,53.019,299.226,54.631,297.714z"/>
	<path d="M275.31,317.457c-6.392,5.988-16.407,5.986-22.8,0c-9.458-8.86-24.277-8.86-33.737,0c-6.393,5.986-16.406,5.986-22.799,0
		c-9.458-8.86-24.277-8.862-33.737,0c-6.393,5.985-16.407,5.986-22.8,0c-9.46-8.862-24.279-8.86-33.737,0
		c-6.393,5.985-16.407,5.986-22.8,0c-9.458-8.86-24.277-8.859-33.737-0.001c-1.612,1.511-1.695,4.042-0.186,5.654
		c1.512,1.612,4.042,1.696,5.654,0.185c6.392-5.988,16.408-5.986,22.8-0.001c9.458,8.861,24.277,8.861,33.737,0
		c6.392-5.986,16.406-5.987,22.8,0c9.46,8.861,24.279,8.861,33.737,0c6.392-5.986,16.406-5.987,22.8,0
		c9.457,8.859,24.277,8.859,33.736,0.001c6.391-5.988,16.407-5.986,22.8-0.001c4.73,4.431,10.799,6.645,16.869,6.645
		c6.069,0,12.139-2.215,16.868-6.645c1.612-1.51,1.695-4.041,0.185-5.653C279.454,316.03,276.923,315.947,275.31,317.457z"/>
	<path d="M125.651,275.962c2.209,0,4-1.791,4-4v-18.33h70.499v18.33c0,2.209,1.791,4,4,4c0.024,0,0.047-0.007,0.071-0.007
		c0.024,0.001,0.047,0.007,0.071,0.007c2.209,0,4-1.791,4-4L208.15,27.787C208.15,16.877,217.026,8,227.936,8
		c10.91,0,19.786,8.877,19.786,19.787c0,2.209,1.791,4,4,4c2.209,0,4-1.791,4-4C255.722,12.465,243.257,0,227.936,0
		S200.15,12.465,200.15,27.787v37.262h-70.499V27.787c0-10.91,8.876-19.787,19.786-19.787c10.91,0,19.786,8.877,19.786,19.787
		c0,2.209,1.791,4,4,4s4-1.791,4-4C177.223,12.465,164.758,0,149.437,0s-27.786,12.465-27.786,27.787v244.175
		C121.651,274.171,123.442,275.962,125.651,275.962z M200.15,200.485h-70.499V163.34h70.499V200.485z M200.15,155.34h-70.499
		v-37.146h70.499V155.34z M129.651,245.632v-37.146h70.499v37.146H129.651z M200.15,73.049v37.146h-70.499V73.049H200.15z"/>
</g>
</svg>